<?xml version="1.0" encoding="utf-8"?>
<!-- Generator: Adobe Illustrator 16.0.5, SVG Export Plug-In . SVG Version: 6.00 Build 0)  -->
<!DOCTYPE svg PUBLIC "-//W3C//DTD SVG 1.1//EN" "http://www.w3.org/Graphics/SVG/1.1/DTD/svg11.dtd">
<svg version="1.1" xmlns="http://www.w3.org/2000/svg" xmlns:xlink="http://www.w3.org/1999/xlink" x="0px" y="0px" width="16px"
	 height="16px" viewBox="0 0 16 16" enable-background="new 0 0 16 16" xml:space="preserve">
<g id="Layer_1">
	<path fill="#E0E0E0" fill-opacity="0.7843" d="M12,7.481v3.718C12,11.641,11.643,12,11.201,12c-0.001,0-0.002,0-0.002,0H4.801
		C4.359,12,4,11.643,4,11.201c0-0.001,0-0.002,0-0.002V4.801C4,4.359,4.357,4,4.799,4c0,0,0.001,0,0.001,0h3.715L8.52,2H4
		C2.896,2,2,2.896,2,4v8c0,1.104,0.896,2,2,2h8c1.104,0,2-0.896,2-2V7.48L12,7.481z"/>
</g>
<g id="Layer_2">
	<g>
		<path fill="#E0E0E0" d="M8.714,8.713c-0.394,0.393-1.033,0.393-1.425,0c-0.395-0.395-0.395-1.031,0-1.426l0.006,0.008l4.297-4.297
			h-1.416c-0.553,0-1-0.448-1-1s0.447-1,1-1h3.83c0.553,0,1,0.448,1,1v3.83c0,0.552-0.447,1-1,1s-1-0.448-1-1V4.412L8.709,8.709
			L8.714,8.713z"/>
	</g>
</g>
</svg>
